<svg width="360" height="230" viewBox="0 0 360 230" fill="none" xmlns="http://www.w3.org/2000/svg">
    <circle cx="180" r="180" fill="url(#paint0_linear)"/>
    <path d="M32.1158 15L40.8074 0.1H58.1926L66.8842 15L58.1926 29.9H40.8074L32.1158 15Z" stroke="white" stroke-width="0.2"/>
    <path d="M58.1158 30L66.8074 15.1H84.1926L92.8842 30L84.1926 44.9H66.8074L58.1158 30Z" stroke="white" stroke-width="0.2"/>
    <path d="M32.1158 45L40.8074 30.1H58.1926L66.8842 45L58.1926 59.9H40.8074L32.1158 45Z" stroke="white" stroke-width="0.2"/>
    <path d="M6.11577 30L14.8074 15.1H32.1926L40.8842 30L32.1926 44.9H14.8074L6.11577 30Z" stroke="white" stroke-width="0.2"/>
    <path d="M6.11577 0L14.8074 -14.9H32.1926L40.8842 0L32.1926 14.9H14.8074L6.11577 0Z" stroke="white" stroke-width="0.2"/>
    <path d="M-19.8842 15L-11.1926 0.1H6.19256L14.8842 15L6.19256 29.9H-11.1926L-19.8842 15Z" stroke="white" stroke-width="0.2"/>
    <path d="M6.11577 60L14.8074 45.1H32.1926L40.8842 60L32.1926 74.9H14.8074L6.11577 60Z" stroke="white" stroke-width="0.2"/>
    <path d="M84.1158 45L92.8074 30.1H110.193L118.884 45L110.193 59.9H92.8074L84.1158 45Z" stroke="white" stroke-width="0.2"/>
    <path d="M58.1158 60L66.8074 45.1H84.1926L92.8842 60L84.1926 74.9H66.8074L58.1158 60Z" stroke="white" stroke-width="0.2"/>
    <path d="M32.1158 75L40.8074 60.1H58.1926L66.8842 75L58.1926 89.9H40.8074L32.1158 75Z" stroke="white" stroke-width="0.2"/>
    <path d="M110.116 60L118.807 45.1H136.193L144.884 60L136.193 74.9H118.807L110.116 60Z" stroke="white" stroke-width="0.2"/>
    <path d="M84.1158 75L92.8074 60.1H110.193L118.884 75L110.193 89.9H92.8074L84.1158 75Z" stroke="white" stroke-width="0.2"/>
    <path d="M58.1158 90L66.8074 75.1H84.1926L92.8842 90L84.1926 104.9H66.8074L58.1158 90Z" stroke="white" stroke-width="0.2"/>
    <path d="M136.116 75L144.807 60.1H162.193L170.884 75L162.193 89.9H144.807L136.116 75Z" stroke="white" stroke-width="0.2"/>
    <path d="M110.116 90L118.807 75.1H136.193L144.884 90L136.193 104.9H118.807L110.116 90Z" stroke="white" stroke-width="0.2"/>
    <path d="M84.1158 105L92.8074 90.1H110.193L118.884 105L110.193 119.9H92.8074L84.1158 105Z" stroke="white" stroke-width="0.2"/>
    <path d="M6.11577 90L14.8074 75.1H32.1926L40.8842 90L32.1926 104.9H14.8074L6.11577 90Z" stroke="white" stroke-width="0.2"/>
    <path d="M32.1158 105L40.8074 90.1H58.1926L66.8842 105L58.1926 119.9H40.8074L32.1158 105Z" stroke="white" stroke-width="0.2"/>
    <path d="M58.1158 120L66.8074 105.1H84.1926L92.8842 120L84.1926 134.9H66.8074L58.1158 120Z" stroke="white" stroke-width="0.2"/>
    <path d="M-19.8842 45L-11.1926 30.1H6.19256L14.8842 45L6.19256 59.9H-11.1926L-19.8842 45Z" stroke="white" stroke-width="0.2"/>
    <path d="M58.1158 0L66.8074 -14.9H84.1926L92.8842 0L84.1926 14.9H66.8074L58.1158 0Z" stroke="white" stroke-width="0.2"/>
    <path d="M162.116 0L170.807 -14.9H188.193L196.884 0L188.193 14.9H170.807L162.116 0Z" stroke="white" stroke-width="0.2"/>
    <path d="M136.116 15L144.807 0.1H162.193L170.884 15L162.193 29.9H144.807L136.116 15Z" stroke="white" stroke-width="0.2"/>
    <path d="M110.116 0L118.807 -14.9H136.193L144.884 0L136.193 14.9H118.807L110.116 0Z" stroke="white" stroke-width="0.2"/>
    <path d="M110.116 30L118.807 15.1H136.193L144.884 30L136.193 44.9H118.807L110.116 30Z" stroke="white" stroke-width="0.2"/>
    <path d="M188.116 15L196.807 0.1H214.193L222.884 15L214.193 29.9H196.807L188.116 15Z" stroke="white" stroke-width="0.2"/>
    <path d="M162.116 30L170.807 15.1H188.193L196.884 30L188.193 44.9H170.807L162.116 30Z" stroke="white" stroke-width="0.2"/>
    <path d="M136.116 45L144.807 30.1H162.193L170.884 45L162.193 59.9H144.807L136.116 45Z" stroke="white" stroke-width="0.2"/>
    <path d="M214.116 30L222.807 15.1H240.193L248.884 30L240.193 44.9H222.807L214.116 30Z" stroke="white" stroke-width="0.2"/>
    <path d="M188.116 45L196.807 30.1H214.193L222.884 45L214.193 59.9H196.807L188.116 45Z" stroke="white" stroke-width="0.2"/>
    <path d="M162.116 60L170.807 45.1H188.193L196.884 60L188.193 74.9H170.807L162.116 60Z" stroke="white" stroke-width="0.2"/>
    <path d="M136.116 105L144.807 90.1H162.193L170.884 105L162.193 119.9H144.807L136.116 105Z" stroke="white" stroke-width="0.2"/>
    <path d="M110.116 120L118.807 105.1H136.193L144.884 120L136.193 134.9H118.807L110.116 120Z" stroke="white" stroke-width="0.2"/>
    <path d="M84.1158 135L92.8074 120.1H110.193L118.884 135L110.193 149.9H92.8074L84.1158 135Z" stroke="white" stroke-width="0.2"/>
    <path d="M32.1158 135L40.8074 120.1H58.1926L66.8842 135L58.1926 149.9H40.8074L32.1158 135Z" stroke="white" stroke-width="0.2"/>
    <path d="M58.1158 150L66.8074 135.1H84.1926L92.8842 150L84.1926 164.9H66.8074L58.1158 150Z" stroke="white" stroke-width="0.2"/>
    <path d="M136.116 135L144.807 120.1H162.193L170.884 135L162.193 149.9H144.807L136.116 135Z" stroke="white" stroke-width="0.2"/>
    <path d="M110.116 150L118.807 135.1H136.193L144.884 150L136.193 164.9H118.807L110.116 150Z" stroke="white" stroke-width="0.2"/>
    <path d="M84.1158 165L92.8074 150.1H110.193L118.884 165L110.193 179.9H92.8074L84.1158 165Z" stroke="white" stroke-width="0.2"/>
    <path d="M162.116 90L170.807 75.1H188.193L196.884 90L188.193 104.9H170.807L162.116 90Z" stroke="white" stroke-width="0.2"/>
    <path d="M240.116 45L248.807 30.1H266.193L274.884 45L266.193 59.9H248.807L240.116 45Z" stroke="white" stroke-width="0.2"/>
    <path d="M214.116 0L222.807 -14.9H240.193L248.884 0L240.193 14.9H222.807L214.116 0Z" stroke="white" stroke-width="0.2"/>
    <path d="M240.116 15L248.807 0.1H266.193L274.884 15L266.193 29.9H248.807L240.116 15Z" stroke="white" stroke-width="0.2"/>
    <path d="M266.116 30L274.807 15.1H292.193L300.884 30L292.193 44.9H274.807L266.116 30Z" stroke="white" stroke-width="0.2"/>
    <path d="M214.116 60L222.807 45.1H240.193L248.884 60L240.193 74.9H222.807L214.116 60Z" stroke="white" stroke-width="0.2"/>
    <path d="M188.116 75L196.807 60.1H214.193L222.884 75L214.193 89.9H196.807L188.116 75Z" stroke="white" stroke-width="0.2"/>
    <path d="M162.116 120L170.807 105.1H188.193L196.884 120L188.193 134.9H170.807L162.116 120Z" stroke="white" stroke-width="0.2"/>
    <path d="M240.116 75L248.807 60.1H266.193L274.884 75L266.193 89.9H248.807L240.116 75Z" stroke="white" stroke-width="0.2"/>
    <path d="M266.116 60L274.807 45.1H292.193L300.884 60L292.193 74.9H274.807L266.116 60Z" stroke="white" stroke-width="0.2"/>
    <path d="M214.116 90L222.807 75.1H240.193L248.884 90L240.193 104.9H222.807L214.116 90Z" stroke="white" stroke-width="0.2"/>
    <path d="M188.116 105L196.807 90.1H214.193L222.884 105L214.193 119.9H196.807L188.116 105Z" stroke="white" stroke-width="0.2"/>
    <path d="M188.116 135L196.807 120.1H214.193L222.884 135L214.193 149.9H196.807L188.116 135Z" stroke="white" stroke-width="0.2"/>
    <path d="M266.116 90L274.807 75.1H292.193L300.884 90L292.193 104.9H274.807L266.116 90Z" stroke="white" stroke-width="0.2"/>
    <path d="M292.116 75L300.807 60.1H318.193L326.884 75L318.193 89.9H300.807L292.116 75Z" stroke="white" stroke-width="0.2"/>
    <path d="M292.116 45L300.807 30.1H318.193L326.884 45L318.193 59.9H300.807L292.116 45Z" stroke="white" stroke-width="0.2"/>
    <path d="M318.116 60L326.807 45.1H344.193L352.884 60L344.193 74.9H326.807L318.116 60Z" stroke="white" stroke-width="0.2"/>
    <path d="M266.116 0L274.807 -14.9H292.193L300.884 0L292.193 14.9H274.807L266.116 0Z" stroke="white" stroke-width="0.2"/>
    <path d="M292.116 15L300.807 0.1H318.193L326.884 15L318.193 29.9H300.807L292.116 15Z" stroke="white" stroke-width="0.2"/>
    <path d="M318.116 30L326.807 15.1H344.193L352.884 30L344.193 44.9H326.807L318.116 30Z" stroke="white" stroke-width="0.2"/>
    <path d="M240.116 105L248.807 90.1H266.193L274.884 105L266.193 119.9H248.807L240.116 105Z" stroke="white" stroke-width="0.2"/>
    <path d="M214.116 120L222.807 105.1H240.193L248.884 120L240.193 134.9H222.807L214.116 120Z" stroke="white" stroke-width="0.2"/>
    <path d="M214.116 150L222.807 135.1H240.193L248.884 150L240.193 164.9H222.807L214.116 150Z" stroke="white" stroke-width="0.2"/>
    <path d="M292.116 105L300.807 90.1H318.193L326.884 105L318.193 119.9H300.807L292.116 105Z" stroke="white" stroke-width="0.2"/>
    <path d="M318.116 90L326.807 75.1H344.193L352.884 90L344.193 104.9H326.807L318.116 90Z" stroke="white" stroke-width="0.2"/>
    <path d="M266.116 120L274.807 105.1H292.193L300.884 120L292.193 134.9H274.807L266.116 120Z" stroke="white" stroke-width="0.2"/>
    <path d="M240.116 135L248.807 120.1H266.193L274.884 135L266.193 149.9H248.807L240.116 135Z" stroke="white" stroke-width="0.2"/>
    <path d="M240.116 165L248.807 150.1H266.193L274.884 165L266.193 179.9H248.807L240.116 165Z" stroke="white" stroke-width="0.2"/>
    <path d="M318.116 120L326.807 105.1H344.193L352.884 120L344.193 134.9H326.807L318.116 120Z" stroke="white" stroke-width="0.2"/>
    <path d="M344.116 105L352.807 90.1H370.193L378.884 105L370.193 119.9H352.807L344.116 105Z" stroke="white" stroke-width="0.2"/>
    <path d="M292.116 135L300.807 120.1H318.193L326.884 135L318.193 149.9H300.807L292.116 135Z" stroke="white" stroke-width="0.2"/>
    <path d="M266.116 150L274.807 135.1H292.193L300.884 150L292.193 164.9H274.807L266.116 150Z" stroke="white" stroke-width="0.2"/>
    <path d="M84.1158 15L92.8074 0.1H110.193L118.884 15L110.193 29.9H92.8074L84.1158 15Z" stroke="white" stroke-width="0.2"/>
    <path d="M318.116 0L326.807 -14.9H344.193L352.884 0L344.193 14.9H326.807L318.116 0Z" stroke="white" stroke-width="0.2"/>
    <path d="M344.116 45L352.807 30.1H370.193L378.884 45L370.193 59.9H352.807L344.116 45Z" stroke="white" stroke-width="0.2"/>
    <path d="M344.116 15L352.807 0.1H370.193L378.884 15L370.193 29.9H352.807L344.116 15Z" stroke="white" stroke-width="0.2"/>
    <circle cx="179.5" cy="180.5" r="49" fill="white" stroke="url(#paint1_linear)"/>
    <path d="M148.8 171.36C148.8 168.533 149.547 166.44 151.04 165.08C152.56 163.693 154.88 163 158 163H167.64V165.32H158C155.84 165.32 154.24 165.813 153.2 166.8C152.187 167.787 151.68 169.307 151.68 171.36V176.64H165.6V178.96H151.68V191H148.8V171.36Z" fill="#1D97D6"/>
    <path d="M173.547 191.03C173.087 191.03 172.717 190.36 172.437 189.02C172.157 187.66 171.977 186.49 171.897 185.51C171.817 184.53 171.707 182.98 171.567 180.86C171.547 180.52 171.537 180.08 171.537 179.54C171.537 178.86 171.587 178.39 171.687 178.13C171.807 177.87 171.997 177.74 172.257 177.74C172.477 177.74 172.647 177.79 172.767 177.89C172.907 177.97 173.027 178.11 173.127 178.31L173.097 179.51C173.097 180.79 173.157 182 173.277 183.14C173.417 184.28 173.627 185.81 173.907 187.73C174.067 188.57 174.177 189.26 174.237 189.8C174.277 190.08 174.227 190.36 174.087 190.64C173.947 190.9 173.767 191.03 173.547 191.03ZM172.797 174.53C172.357 174.53 172.027 174.36 171.807 174.02C171.607 173.68 171.507 173.26 171.507 172.76C171.507 172.54 171.517 172.38 171.537 172.28C171.517 171.96 171.697 171.8 172.077 171.8C172.357 171.8 172.637 171.87 172.917 172.01C173.217 172.13 173.307 172.22 173.187 172.28C173.387 172.8 173.487 173.21 173.487 173.51C173.487 173.77 173.427 173.98 173.307 174.14C173.187 174.28 173.017 174.41 172.797 174.53ZM179.253 190.79C178.813 188.61 178.473 186.03 178.233 183.05C178.013 180.05 177.903 177.15 177.903 174.35C177.903 172.95 177.933 171.71 177.993 170.63C177.993 170.37 178.193 170.24 178.593 170.24C178.913 170.24 179.113 170.32 179.193 170.48C179.293 170.64 179.343 170.89 179.343 171.23C179.343 174.47 179.403 177.24 179.523 179.54C179.643 181.82 179.803 184.28 180.003 186.92C180.123 188.62 180.203 189.77 180.243 190.37C180.263 190.69 180.093 190.85 179.733 190.85C179.613 190.85 179.453 190.83 179.253 190.79ZM189.527 191.03C188.347 191.03 187.277 190.77 186.317 190.25C185.377 189.71 184.637 188.97 184.097 188.03C183.577 187.07 183.317 185.98 183.317 184.76C183.317 182.76 184.047 181.27 185.507 180.29C186.987 179.31 188.797 178.82 190.937 178.82C191.917 178.82 192.827 179.06 193.667 179.54C194.527 180.02 195.217 180.71 195.737 181.61C196.257 182.51 196.517 183.55 196.517 184.73C196.517 186.01 196.187 187.13 195.527 188.09C194.867 189.03 193.997 189.76 192.917 190.28C191.857 190.78 190.727 191.03 189.527 191.03ZM189.197 189.32C191.057 189.32 192.467 188.9 193.427 188.06C194.387 187.22 194.867 185.99 194.867 184.37C194.867 183.27 194.487 182.32 193.727 181.52C192.987 180.72 191.947 180.32 190.607 180.32C189.707 180.32 188.797 180.49 187.877 180.83C186.957 181.17 186.197 181.68 185.597 182.36C184.997 183.04 184.697 183.86 184.697 184.82C184.697 185.62 184.897 186.37 185.297 187.07C185.697 187.75 186.237 188.3 186.917 188.72C187.617 189.12 188.377 189.32 189.197 189.32ZM205.788 191.03C204.608 191.03 203.538 190.77 202.578 190.25C201.638 189.71 200.898 188.97 200.358 188.03C199.838 187.07 199.578 185.98 199.578 184.76C199.578 182.76 200.308 181.27 201.768 180.29C203.248 179.31 205.058 178.82 207.198 178.82C208.178 178.82 209.088 179.06 209.928 179.54C210.788 180.02 211.478 180.71 211.998 181.61C212.518 182.51 212.778 183.55 212.778 184.73C212.778 186.01 212.448 187.13 211.788 188.09C211.128 189.03 210.258 189.76 209.178 190.28C208.118 190.78 206.988 191.03 205.788 191.03ZM205.458 189.32C207.318 189.32 208.728 188.9 209.688 188.06C210.648 187.22 211.128 185.99 211.128 184.37C211.128 183.27 210.748 182.32 209.988 181.52C209.248 180.72 208.208 180.32 206.868 180.32C205.968 180.32 205.058 180.49 204.138 180.83C203.218 181.17 202.458 181.68 201.858 182.36C201.258 183.04 200.958 183.86 200.958 184.82C200.958 185.62 201.158 186.37 201.558 187.07C201.958 187.75 202.498 188.3 203.178 188.72C203.878 189.12 204.638 189.32 205.458 189.32Z" fill="black"/>
    <path d="M157.968 203H157.352L156.968 201.56C156.893 201.283 156.808 201.067 156.712 200.912C156.616 200.757 156.483 200.645 156.312 200.576C156.147 200.501 155.92 200.464 155.632 200.464H154.336V203H153.76V197.4H156.16C156.683 197.4 157.08 197.531 157.352 197.792C157.629 198.053 157.768 198.421 157.768 198.896C157.768 199.296 157.672 199.616 157.48 199.856C157.293 200.091 157.027 200.237 156.68 200.296C156.915 200.381 157.096 200.523 157.224 200.72C157.357 200.917 157.475 201.197 157.576 201.56L157.968 203ZM156.096 200C156.443 200 156.712 199.907 156.904 199.72C157.096 199.533 157.192 199.272 157.192 198.936C157.192 198.595 157.096 198.331 156.904 198.144C156.712 197.957 156.443 197.864 156.096 197.864H154.336V200H156.096ZM160.449 202.656C160.678 202.656 160.881 202.621 161.057 202.552C161.233 202.483 161.395 202.371 161.545 202.216L161.881 202.528C161.71 202.72 161.507 202.861 161.273 202.952C161.038 203.043 160.753 203.088 160.417 203.088C159.905 203.088 159.505 202.968 159.217 202.728C158.934 202.483 158.793 202.141 158.793 201.704V200.488C158.793 200.077 158.931 199.755 159.209 199.52C159.491 199.28 159.878 199.16 160.368 199.16C160.87 199.16 161.254 199.285 161.521 199.536C161.793 199.787 161.929 200.141 161.929 200.6C161.929 200.893 161.873 201.096 161.761 201.208C161.654 201.315 161.451 201.368 161.153 201.368H159.329V201.704C159.329 202.024 159.419 202.264 159.601 202.424C159.787 202.579 160.07 202.656 160.449 202.656ZM160.361 199.584C160.041 199.584 159.787 199.669 159.601 199.84C159.419 200.005 159.329 200.232 159.329 200.52V200.976H160.929C161.11 200.976 161.233 200.947 161.297 200.888C161.361 200.824 161.393 200.707 161.393 200.536C161.393 200.237 161.302 200.005 161.121 199.84C160.939 199.669 160.686 199.584 160.361 199.584ZM165.85 202.32C165.85 202.416 165.866 202.496 165.898 202.56C165.935 202.619 166.002 202.688 166.098 202.768L165.738 203.088C165.605 203.013 165.506 202.928 165.442 202.832C165.378 202.736 165.341 202.611 165.33 202.456C165.191 202.659 165.002 202.816 164.762 202.928C164.522 203.035 164.253 203.088 163.954 203.088C163.549 203.088 163.237 202.995 163.018 202.808C162.799 202.616 162.69 202.341 162.69 201.984C162.69 201.653 162.805 201.395 163.034 201.208C163.263 201.021 163.61 200.901 164.074 200.848L164.698 200.776C164.874 200.755 165.005 200.728 165.09 200.696C165.181 200.664 165.242 200.619 165.274 200.56C165.306 200.496 165.319 200.408 165.314 200.296C165.266 199.8 164.919 199.552 164.274 199.552C164.034 199.552 163.829 199.592 163.658 199.672C163.487 199.747 163.341 199.867 163.218 200.032L162.85 199.76C163.101 199.355 163.575 199.152 164.274 199.152C164.786 199.152 165.175 199.261 165.442 199.48C165.714 199.699 165.85 200.013 165.85 200.424V202.32ZM164.074 202.672C164.447 202.672 164.749 202.576 164.978 202.384C165.207 202.192 165.322 201.939 165.322 201.624V200.976C165.258 201.024 165.181 201.061 165.09 201.088C164.999 201.109 164.874 201.128 164.714 201.144L164.122 201.208C163.818 201.245 163.586 201.331 163.426 201.464C163.271 201.592 163.194 201.763 163.194 201.976C163.194 202.44 163.487 202.672 164.074 202.672ZM167.44 203.088C167.275 202.997 167.16 202.896 167.096 202.784C167.038 202.667 167.008 202.507 167.008 202.304V197.968C167.008 197.867 166.99 197.787 166.952 197.728C166.92 197.664 166.856 197.595 166.76 197.52L167.112 197.2C167.278 197.291 167.39 197.395 167.448 197.512C167.512 197.624 167.544 197.781 167.544 197.984V202.32C167.544 202.416 167.56 202.496 167.592 202.56C167.63 202.619 167.696 202.688 167.792 202.768L167.44 203.088ZM172.275 197.864H170.459V197.4H174.667V197.864H172.851V203H172.275V197.864ZM175.742 198.392C175.641 198.392 175.553 198.355 175.478 198.28C175.403 198.205 175.366 198.117 175.366 198.016C175.366 197.915 175.403 197.829 175.478 197.76C175.553 197.685 175.641 197.648 175.742 197.648C175.843 197.648 175.929 197.685 175.998 197.76C176.073 197.829 176.11 197.915 176.11 198.016C176.11 198.117 176.073 198.205 175.998 198.28C175.929 198.355 175.843 198.392 175.742 198.392ZM175.902 203.088C175.737 202.997 175.622 202.896 175.558 202.784C175.499 202.667 175.47 202.507 175.47 202.304V199.24H176.006V202.32C176.006 202.416 176.022 202.496 176.054 202.56C176.091 202.619 176.158 202.688 176.254 202.768L175.902 203.088ZM181.583 199.152C181.941 199.152 182.218 199.264 182.415 199.488C182.613 199.712 182.711 200.027 182.711 200.432V203H182.175V200.512C182.175 200.213 182.111 199.984 181.983 199.824C181.855 199.664 181.674 199.584 181.439 199.584C181.173 199.584 180.935 199.696 180.727 199.92C180.525 200.139 180.386 200.435 180.311 200.808V203H179.775V200.512C179.775 200.213 179.711 199.984 179.583 199.824C179.461 199.664 179.282 199.584 179.047 199.584C178.781 199.584 178.543 199.699 178.335 199.928C178.127 200.152 177.989 200.445 177.919 200.808V203H177.383V199.92C177.383 199.824 177.365 199.747 177.327 199.688C177.295 199.624 177.231 199.552 177.135 199.472L177.487 199.152C177.637 199.232 177.743 199.331 177.807 199.448C177.877 199.565 177.911 199.712 177.911 199.888V200.016C178.039 199.739 178.213 199.525 178.431 199.376C178.655 199.227 178.909 199.152 179.191 199.152C179.49 199.152 179.733 199.235 179.919 199.4C180.106 199.565 180.223 199.805 180.271 200.12C180.362 199.821 180.527 199.587 180.767 199.416C181.007 199.24 181.279 199.152 181.583 199.152ZM185.449 202.656C185.678 202.656 185.881 202.621 186.057 202.552C186.233 202.483 186.395 202.371 186.545 202.216L186.881 202.528C186.71 202.72 186.507 202.861 186.273 202.952C186.038 203.043 185.753 203.088 185.417 203.088C184.905 203.088 184.505 202.968 184.217 202.728C183.934 202.483 183.793 202.141 183.793 201.704V200.488C183.793 200.077 183.931 199.755 184.209 199.52C184.491 199.28 184.878 199.16 185.368 199.16C185.87 199.16 186.254 199.285 186.521 199.536C186.793 199.787 186.929 200.141 186.929 200.6C186.929 200.893 186.873 201.096 186.761 201.208C186.654 201.315 186.451 201.368 186.153 201.368H184.329V201.704C184.329 202.024 184.419 202.264 184.601 202.424C184.787 202.579 185.07 202.656 185.449 202.656ZM185.361 199.584C185.041 199.584 184.787 199.669 184.601 199.84C184.419 200.005 184.329 200.232 184.329 200.52V200.976H185.929C186.11 200.976 186.233 200.947 186.297 200.888C186.361 200.824 186.393 200.707 186.393 200.536C186.393 200.237 186.302 200.005 186.121 199.84C185.939 199.669 185.686 199.584 185.361 199.584Z" fill="black"/>
    <path d="M192.065 203.088C191.324 203.088 190.759 202.915 190.369 202.568C189.985 202.221 189.793 201.715 189.793 201.048V199.344C189.793 198.688 189.98 198.187 190.353 197.84C190.732 197.488 191.276 197.312 191.985 197.312C192.449 197.312 192.847 197.387 193.177 197.536C193.508 197.68 193.78 197.907 193.993 198.216L193.585 198.512C193.399 198.261 193.177 198.077 192.921 197.96C192.671 197.837 192.367 197.776 192.009 197.776C191.476 197.776 191.068 197.909 190.785 198.176C190.508 198.443 190.369 198.832 190.369 199.344V201.048C190.369 201.565 190.511 201.957 190.793 202.224C191.081 202.491 191.503 202.624 192.057 202.624C192.425 202.624 192.737 202.563 192.993 202.44C193.249 202.317 193.471 202.125 193.657 201.864L194.065 202.176C193.825 202.496 193.548 202.728 193.233 202.872C192.919 203.016 192.529 203.088 192.065 203.088ZM196.888 199.152C197.267 199.152 197.56 199.264 197.768 199.488C197.981 199.712 198.088 200.027 198.088 200.432V203H197.552V200.512C197.552 200.219 197.483 199.992 197.344 199.832C197.205 199.667 197.011 199.584 196.76 199.584C196.472 199.584 196.221 199.691 196.008 199.904C195.795 200.112 195.643 200.403 195.552 200.776V203H195.016V197.968C195.016 197.867 194.997 197.787 194.96 197.728C194.928 197.664 194.864 197.595 194.768 197.52L195.12 197.2C195.285 197.291 195.397 197.395 195.456 197.512C195.52 197.624 195.552 197.781 195.552 197.984V200.024C195.68 199.747 195.859 199.533 196.088 199.384C196.323 199.229 196.589 199.152 196.888 199.152ZM202.288 202.32C202.288 202.416 202.304 202.496 202.336 202.56C202.373 202.619 202.44 202.688 202.536 202.768L202.176 203.088C202.042 203.013 201.944 202.928 201.88 202.832C201.816 202.736 201.778 202.611 201.768 202.456C201.629 202.659 201.44 202.816 201.2 202.928C200.96 203.035 200.69 203.088 200.392 203.088C199.986 203.088 199.674 202.995 199.456 202.808C199.237 202.616 199.128 202.341 199.128 201.984C199.128 201.653 199.242 201.395 199.472 201.208C199.701 201.021 200.048 200.901 200.512 200.848L201.136 200.776C201.312 200.755 201.442 200.728 201.528 200.696C201.618 200.664 201.68 200.619 201.712 200.56C201.744 200.496 201.757 200.408 201.752 200.296C201.704 199.8 201.357 199.552 200.712 199.552C200.472 199.552 200.266 199.592 200.096 199.672C199.925 199.747 199.778 199.867 199.656 200.032L199.288 199.76C199.538 199.355 200.013 199.152 200.712 199.152C201.224 199.152 201.613 199.261 201.88 199.48C202.152 199.699 202.288 200.013 202.288 200.424V202.32ZM200.512 202.672C200.885 202.672 201.186 202.576 201.416 202.384C201.645 202.192 201.76 201.939 201.76 201.624V200.976C201.696 201.024 201.618 201.061 201.528 201.088C201.437 201.109 201.312 201.128 201.152 201.144L200.56 201.208C200.256 201.245 200.024 201.331 199.863 201.464C199.709 201.592 199.632 201.763 199.632 201.976C199.632 202.44 199.925 202.672 200.512 202.672ZM203.981 199.672V201.912C203.981 202.387 204.189 202.624 204.605 202.624H205.061V203.048H204.605C204.205 203.048 203.912 202.957 203.725 202.776C203.538 202.589 203.445 202.301 203.445 201.912V198.368C203.445 198.272 203.426 198.195 203.389 198.136C203.357 198.072 203.293 198 203.197 197.92L203.557 197.6C203.717 197.691 203.826 197.795 203.885 197.912C203.949 198.024 203.981 198.181 203.981 198.384V199.24H205.061V199.672H203.981Z" fill="#1D97D6"/>
    <defs>
        <linearGradient id="paint0_linear" x1="180" y1="-180" x2="180" y2="180" gradientUnits="userSpaceOnUse">
            <stop stop-color="#1D97D6"/>
            <stop offset="1" stop-color="#55B2E1"/>
        </linearGradient>
        <linearGradient id="paint1_linear" x1="158" y1="135.5" x2="209" y2="226" gradientUnits="userSpaceOnUse">
            <stop stop-color="#4DAEE0"/>
            <stop offset="1" stop-color="#A1D9F5"/>
        </linearGradient>
    </defs>
</svg>
