<svg width="360" height="195" viewBox="0 0 360 195" fill="none" xmlns="http://www.w3.org/2000/svg">
    <rect width="360" height="180" fill="#1D97D6"/>
    <path d="M32.0579 15L40.7787 0.05H58.2213L66.9421 15L58.2213 29.95H40.7787L32.0579 15Z" stroke="white" stroke-width="0.1"/>
    <path d="M58.0579 30L66.7787 15.05H84.2213L92.9421 30L84.2213 44.95H66.7787L58.0579 30Z" stroke="white" stroke-width="0.1"/>
    <path d="M32.0579 45L40.7787 30.05H58.2213L66.9421 45L58.2213 59.95H40.7787L32.0579 45Z" stroke="white" stroke-width="0.1"/>
    <path d="M6.05788 30L14.7787 15.05H32.2213L40.9421 30L32.2213 44.95H14.7787L6.05788 30Z" stroke="white" stroke-width="0.1"/>
    <path d="M6.05788 0L14.7787 -14.95H32.2213L40.9421 0L32.2213 14.95H14.7787L6.05788 0Z" stroke="white" stroke-width="0.1"/>
    <path d="M-19.9421 15L-11.2213 0.05H6.22128L14.9421 15L6.22128 29.95H-11.2213L-19.9421 15Z" stroke="white" stroke-width="0.1"/>
    <path d="M6.05788 60L14.7787 45.05H32.2213L40.9421 60L32.2213 74.95H14.7787L6.05788 60Z" stroke="white" stroke-width="0.1"/>
    <path d="M84.0579 45L92.7787 30.05H110.221L118.942 45L110.221 59.95H92.7787L84.0579 45Z" stroke="white" stroke-width="0.1"/>
    <path d="M58.0579 60L66.7787 45.05H84.2213L92.9421 60L84.2213 74.95H66.7787L58.0579 60Z" stroke="white" stroke-width="0.1"/>
    <path d="M32.0579 75L40.7787 60.05H58.2213L66.9421 75L58.2213 89.95H40.7787L32.0579 75Z" stroke="white" stroke-width="0.1"/>
    <path d="M110.058 60L118.779 45.05H136.221L144.942 60L136.221 74.95H118.779L110.058 60Z" stroke="white" stroke-width="0.1"/>
    <path d="M84.0579 75L92.7787 60.05H110.221L118.942 75L110.221 89.95H92.7787L84.0579 75Z" stroke="white" stroke-width="0.1"/>
    <path d="M58.0579 90L66.7787 75.05H84.2213L92.9421 90L84.2213 104.95H66.7787L58.0579 90Z" stroke="white" stroke-width="0.1"/>
    <path d="M136.058 75L144.779 60.05H162.221L170.942 75L162.221 89.95H144.779L136.058 75Z" stroke="white" stroke-width="0.1"/>
    <path d="M110.058 90L118.779 75.05H136.221L144.942 90L136.221 104.95H118.779L110.058 90Z" stroke="white" stroke-width="0.1"/>
    <path d="M84.0579 105L92.7787 90.05H110.221L118.942 105L110.221 119.95H92.7787L84.0579 105Z" stroke="white" stroke-width="0.1"/>
    <path d="M6.05788 90L14.7787 75.05H32.2213L40.9421 90L32.2213 104.95H14.7787L6.05788 90Z" stroke="white" stroke-width="0.1"/>
    <path d="M32.0579 105L40.7787 90.05H58.2213L66.9421 105L58.2213 119.95H40.7787L32.0579 105Z" stroke="white" stroke-width="0.1"/>
    <path d="M58.0579 120L66.7787 105.05H84.2213L92.9421 120L84.2213 134.95H66.7787L58.0579 120Z" stroke="white" stroke-width="0.1"/>
    <path d="M-19.9421 45L-11.2213 30.05H6.22128L14.9421 45L6.22128 59.95H-11.2213L-19.9421 45Z" stroke="white" stroke-width="0.1"/>
    <path d="M58.0579 0L66.7787 -14.95H84.2213L92.9421 0L84.2213 14.95H66.7787L58.0579 0Z" stroke="white" stroke-width="0.1"/>
    <path d="M162.058 0L170.779 -14.95H188.221L196.942 0L188.221 14.95H170.779L162.058 0Z" stroke="white" stroke-width="0.1"/>
    <path d="M136.058 15L144.779 0.05H162.221L170.942 15L162.221 29.95H144.779L136.058 15Z" stroke="white" stroke-width="0.1"/>
    <path d="M110.058 0L118.779 -14.95H136.221L144.942 0L136.221 14.95H118.779L110.058 0Z" stroke="white" stroke-width="0.1"/>
    <path d="M110.058 30L118.779 15.05H136.221L144.942 30L136.221 44.95H118.779L110.058 30Z" stroke="white" stroke-width="0.1"/>
    <path d="M188.058 15L196.779 0.05H214.221L222.942 15L214.221 29.95H196.779L188.058 15Z" stroke="white" stroke-width="0.1"/>
    <path d="M162.058 30L170.779 15.05H188.221L196.942 30L188.221 44.95H170.779L162.058 30Z" stroke="white" stroke-width="0.1"/>
    <path d="M136.058 45L144.779 30.05H162.221L170.942 45L162.221 59.95H144.779L136.058 45Z" stroke="white" stroke-width="0.1"/>
    <path d="M214.058 30L222.779 15.05H240.221L248.942 30L240.221 44.95H222.779L214.058 30Z" stroke="white" stroke-width="0.1"/>
    <path d="M188.058 45L196.779 30.05H214.221L222.942 45L214.221 59.95H196.779L188.058 45Z" stroke="white" stroke-width="0.1"/>
    <path d="M162.058 60L170.779 45.05H188.221L196.942 60L188.221 74.95H170.779L162.058 60Z" stroke="white" stroke-width="0.1"/>
    <path d="M136.058 105L144.779 90.05H162.221L170.942 105L162.221 119.95H144.779L136.058 105Z" stroke="white" stroke-width="0.1"/>
    <path d="M110.058 120L118.779 105.05H136.221L144.942 120L136.221 134.95H118.779L110.058 120Z" stroke="white" stroke-width="0.1"/>
    <path d="M84.0579 135L92.7787 120.05H110.221L118.942 135L110.221 149.95H92.7787L84.0579 135Z" stroke="white" stroke-width="0.1"/>
    <path d="M32.0579 135L40.7787 120.05H58.2213L66.9421 135L58.2213 149.95H40.7787L32.0579 135Z" stroke="white" stroke-width="0.1"/>
    <path d="M58.0579 150L66.7787 135.05H84.2213L92.9421 150L84.2213 164.95H66.7787L58.0579 150Z" stroke="white" stroke-width="0.1"/>
    <path d="M6.05788 120L14.7787 105.05H32.2213L40.9421 120L32.2213 134.95H14.7787L6.05788 120Z" stroke="white" stroke-width="0.1"/>
    <path d="M6.05788 150L14.7787 135.05H32.2213L40.9421 150L32.2213 164.95H14.7787L6.05788 150Z" stroke="white" stroke-width="0.1"/>
    <path d="M32.0579 165L40.7787 150.05H58.2213L66.9421 165L58.2213 179.95H40.7787L32.0579 165Z" stroke="white" stroke-width="0.1"/>
    <path d="M162.058 150L170.779 135.05H188.221L196.942 150L188.221 164.95H170.779L162.058 150Z" stroke="white" stroke-width="0.1"/>
    <path d="M188.058 165L196.779 150.05H214.221L222.942 165L214.221 179.95H196.779L188.058 165Z" stroke="white" stroke-width="0.1"/>
    <path d="M136.058 135L144.779 120.05H162.221L170.942 135L162.221 149.95H144.779L136.058 135Z" stroke="white" stroke-width="0.1"/>
    <path d="M136.058 165L144.779 150.05H162.221L170.942 165L162.221 179.95H144.779L136.058 165Z" stroke="white" stroke-width="0.1"/>
    <path d="M110.058 180L118.779 165.05H136.221L144.942 180L136.221 194.95H118.779L110.058 180Z" stroke="white" stroke-width="0.1"/>
    <path d="M162.058 180L170.779 165.05H188.221L196.942 180L188.221 194.95H170.779L162.058 180Z" stroke="white" stroke-width="0.1"/>
    <path d="M214.058 180L222.779 165.05H240.221L248.942 180L240.221 194.95H222.779L214.058 180Z" stroke="white" stroke-width="0.1"/>
    <path d="M110.058 150L118.779 135.05H136.221L144.942 150L136.221 164.95H118.779L110.058 150Z" stroke="white" stroke-width="0.1"/>
    <path d="M84.0579 165L92.7787 150.05H110.221L118.942 165L110.221 179.95H92.7787L84.0579 165Z" stroke="white" stroke-width="0.1"/>
    <path d="M162.058 90L170.779 75.05H188.221L196.942 90L188.221 104.95H170.779L162.058 90Z" stroke="white" stroke-width="0.1"/>
    <path d="M240.058 45L248.779 30.05H266.221L274.942 45L266.221 59.95H248.779L240.058 45Z" stroke="white" stroke-width="0.1"/>
    <path d="M214.058 0L222.779 -14.95H240.221L248.942 0L240.221 14.95H222.779L214.058 0Z" stroke="white" stroke-width="0.1"/>
    <path d="M240.058 15L248.779 0.05H266.221L274.942 15L266.221 29.95H248.779L240.058 15Z" stroke="white" stroke-width="0.1"/>
    <path d="M266.058 30L274.779 15.05H292.221L300.942 30L292.221 44.95H274.779L266.058 30Z" stroke="white" stroke-width="0.1"/>
    <path d="M214.058 60L222.779 45.05H240.221L248.942 60L240.221 74.95H222.779L214.058 60Z" stroke="white" stroke-width="0.1"/>
    <path d="M188.058 75L196.779 60.05H214.221L222.942 75L214.221 89.95H196.779L188.058 75Z" stroke="white" stroke-width="0.1"/>
    <path d="M162.058 120L170.779 105.05H188.221L196.942 120L188.221 134.95H170.779L162.058 120Z" stroke="white" stroke-width="0.1"/>
    <path d="M240.058 75L248.779 60.05H266.221L274.942 75L266.221 89.95H248.779L240.058 75Z" stroke="white" stroke-width="0.1"/>
    <path d="M266.058 60L274.779 45.05H292.221L300.942 60L292.221 74.95H274.779L266.058 60Z" stroke="white" stroke-width="0.1"/>
    <path d="M214.058 90L222.779 75.05H240.221L248.942 90L240.221 104.95H222.779L214.058 90Z" stroke="white" stroke-width="0.1"/>
    <path d="M188.058 105L196.779 90.05H214.221L222.942 105L214.221 119.95H196.779L188.058 105Z" stroke="white" stroke-width="0.1"/>
    <path d="M188.058 135L196.779 120.05H214.221L222.942 135L214.221 149.95H196.779L188.058 135Z" stroke="white" stroke-width="0.1"/>
    <path d="M266.058 90L274.779 75.05H292.221L300.942 90L292.221 104.95H274.779L266.058 90Z" stroke="white" stroke-width="0.1"/>
    <path d="M292.058 75L300.779 60.05H318.221L326.942 75L318.221 89.95H300.779L292.058 75Z" stroke="white" stroke-width="0.1"/>
    <path d="M292.058 45L300.779 30.05H318.221L326.942 45L318.221 59.95H300.779L292.058 45Z" stroke="white" stroke-width="0.1"/>
    <path d="M318.058 60L326.779 45.05H344.221L352.942 60L344.221 74.95H326.779L318.058 60Z" stroke="white" stroke-width="0.1"/>
    <path d="M266.058 0L274.779 -14.95H292.221L300.942 0L292.221 14.95H274.779L266.058 0Z" stroke="white" stroke-width="0.1"/>
    <path d="M292.058 15L300.779 0.05H318.221L326.942 15L318.221 29.95H300.779L292.058 15Z" stroke="white" stroke-width="0.1"/>
    <path d="M318.058 30L326.779 15.05H344.221L352.942 30L344.221 44.95H326.779L318.058 30Z" stroke="white" stroke-width="0.1"/>
    <path d="M240.058 105L248.779 90.05H266.221L274.942 105L266.221 119.95H248.779L240.058 105Z" stroke="white" stroke-width="0.1"/>
    <path d="M214.058 120L222.779 105.05H240.221L248.942 120L240.221 134.95H222.779L214.058 120Z" stroke="white" stroke-width="0.1"/>
    <path d="M214.058 150L222.779 135.05H240.221L248.942 150L240.221 164.95H222.779L214.058 150Z" stroke="white" stroke-width="0.1"/>
    <path d="M292.058 105L300.779 90.05H318.221L326.942 105L318.221 119.95H300.779L292.058 105Z" stroke="white" stroke-width="0.1"/>
    <path d="M318.058 90L326.779 75.05H344.221L352.942 90L344.221 104.95H326.779L318.058 90Z" stroke="white" stroke-width="0.1"/>
    <path d="M266.058 120L274.779 105.05H292.221L300.942 120L292.221 134.95H274.779L266.058 120Z" stroke="white" stroke-width="0.1"/>
    <path d="M240.058 135L248.779 120.05H266.221L274.942 135L266.221 149.95H248.779L240.058 135Z" stroke="white" stroke-width="0.1"/>
    <path d="M240.058 165L248.779 150.05H266.221L274.942 165L266.221 179.95H248.779L240.058 165Z" stroke="white" stroke-width="0.1"/>
    <path d="M318.058 120L326.779 105.05H344.221L352.942 120L344.221 134.95H326.779L318.058 120Z" stroke="white" stroke-width="0.1"/>
    <path d="M344.058 105L352.779 90.05H370.221L378.942 105L370.221 119.95H352.779L344.058 105Z" stroke="white" stroke-width="0.1"/>
    <path d="M292.058 135L300.779 120.05H318.221L326.942 135L318.221 149.95H300.779L292.058 135Z" stroke="white" stroke-width="0.1"/>
    <path d="M266.058 150L274.779 135.05H292.221L300.942 150L292.221 164.95H274.779L266.058 150Z" stroke="white" stroke-width="0.1"/>
    <path d="M266.058 180L274.779 165.05H292.221L300.942 180L292.221 194.95H274.779L266.058 180Z" stroke="white" stroke-width="0.1"/>
    <path d="M344.058 135L352.779 120.05H370.221L378.942 135L370.221 149.95H352.779L344.058 135Z" stroke="white" stroke-width="0.1"/>
    <path d="M318.058 150L326.779 135.05H344.221L352.942 150L344.221 164.95H326.779L318.058 150Z" stroke="white" stroke-width="0.1"/>
    <path d="M292.058 165L300.779 150.05H318.221L326.942 165L318.221 179.95H300.779L292.058 165Z" stroke="white" stroke-width="0.1"/>
    <path d="M344.058 165L352.779 150.05H370.221L378.942 165L370.221 179.95H352.779L344.058 165Z" stroke="white" stroke-width="0.1"/>
    <path d="M318.058 180L326.779 165.05H344.221L352.942 180L344.221 194.95H326.779L318.058 180Z" stroke="white" stroke-width="0.1"/>
    <path d="M84.0579 15L92.7787 0.05H110.221L118.942 15L110.221 29.95H92.7787L84.0579 15Z" stroke="white" stroke-width="0.1"/>
    <path d="M318.058 0L326.779 -14.95H344.221L352.942 0L344.221 14.95H326.779L318.058 0Z" stroke="white" stroke-width="0.1"/>
    <path d="M344.058 45L352.779 30.05H370.221L378.942 45L370.221 59.95H352.779L344.058 45Z" stroke="white" stroke-width="0.1"/>
    <path d="M344.058 15L352.779 0.05H370.221L378.942 15L370.221 29.95H352.779L344.058 15Z" stroke="white" stroke-width="0.1"/>
    <path d="M-19.8842 105L-11.1926 90.1H6.19256L14.8842 105L6.19256 119.9H-11.1926L-19.8842 105Z" stroke="white" stroke-width="0.2"/>
    <path d="M-19.8842 135L-11.1926 120.1H6.19256L14.8842 135L6.19256 149.9H-11.1926L-19.8842 135Z" stroke="white" stroke-width="0.2"/>
    <path d="M-19.8842 165L-11.1926 150.1H6.19256L14.8842 165L6.19256 179.9H-11.1926L-19.8842 165Z" stroke="white" stroke-width="0.2"/>
    <path d="M6.11577 180L14.8074 165.1H32.1926L40.8842 180L32.1926 194.9H14.8074L6.11577 180Z" stroke="white" stroke-width="0.2"/>
    <path d="M-19.8842 75L-11.1926 60.1H6.19256L14.8842 75L6.19256 89.9H-11.1926L-19.8842 75Z" stroke="white" stroke-width="0.2"/>
</svg>
